HIERARCHY
ROOT Hips
{
	OFFSET 0.000000 0.000000 0.000000
	CHANNELS 6 Xposition Yposition Zposition Zrotation Yrotation Xrotation 
	JOINT LowerBack
	{
		OFFSET 0.000000 0.000000 0.000000
		CHANNELS 3 Zrotation Yrotation Xrotation
		JOINT Spine
		{
			OFFSET 0.028270 2.035590 -0.193380
			CHANNELS 3 Zrotation Yrotation Xrotation
			JOINT Spine1
			{
				OFFSET 0.056720 2.048850 -0.042750
				CHANNELS 3 Zrotation Yrotation Xrotation
				JOINT Neck
				{
					OFFSET 0.000000 0.000000 0.000000
					CHANNELS 3 Zrotation Yrotation Xrotation
					JOINT Neck1
					{
						OFFSET -0.054170 1.746240 0.172020
						CHANNELS 3 Zrotation Yrotation Xrotation
						JOINT Head
						{
							OFFSET 0.104070 1.761360 -0.123970
							CHANNELS 3 Zrotation Yrotation Xrotation
							End Site
							{
								OFFSET 0.000000 0.000000 0.000000
							}
						}
					}
				}
				JOINT LeftShoulder
				{
					OFFSET 0.000000 0.000000 0.000000
					CHANNELS 3 Zrotation Yrotation Xrotation
					JOINT LeftArm
					{
						OFFSET 3.362410 1.200890 -0.311210
						CHANNELS 3 Zrotation Yrotation Xrotation
						JOINT LeftForeArm
						{
							OFFSET 4.983000 -0.000000 -0.000000
							CHANNELS 3 Zrotation Yrotation Xrotation
							JOINT LeftHand
							{
								OFFSET 3.483560 -0.000000 -0.000000
								CHANNELS 3 Zrotation Yrotation Xrotation
								JOINT LeftFingerBase
								{
									OFFSET 0.000000 0.000000 0.000000
									CHANNELS 3 Zrotation Yrotation Xrotation
									JOINT LeftHandIndex1
									{
										OFFSET 0.715260 -0.000000 -0.000000
										CHANNELS 3 Zrotation Yrotation Xrotation
										End Site
										{
											OFFSET 0.000000 0.000000 0.000000
										}
									}
								}
								JOINT LThumb
								{
									OFFSET 0.000000 0.000000 0.000000
									CHANNELS 3 Zrotation Yrotation Xrotation
									End Site
									{
										OFFSET 0.000000 0.000000 0.000000
									}
								}
							}
						}
					}
				}
				JOINT RightShoulder
				{
					OFFSET 0.000000 0.000000 0.000000
					CHANNELS 3 Zrotation Yrotation Xrotation
					JOINT RightArm
					{
						OFFSET -3.136600 1.374050 -0.404650
						CHANNELS 3 Zrotation Yrotation Xrotation
						JOINT RightForeArm
						{
							OFFSET -5.241900 -0.000000 -0.000000
							CHANNELS 3 Zrotation Yrotation Xrotation
							JOINT RightHand
							{
								OFFSET -3.444170 -0.000000 -0.000000
								CHANNELS 3 Zrotation Yrotation Xrotation
								JOINT RightFingerBase
								{
									OFFSET 0.000000 0.000000 0.000000
									CHANNELS 3 Zrotation Yrotation Xrotation
									JOINT RightHandIndex1
									{
										OFFSET -0.622530 -0.000000 -0.000000
										CHANNELS 3 Zrotation Yrotation Xrotation
										End Site
										{
											OFFSET 0.000000 0.000000 0.000000
										}
									}
								}
								JOINT RThumb
								{
									OFFSET 0.000000 0.000000 0.000000
									CHANNELS 3 Zrotation Yrotation Xrotation
									End Site
									{
										OFFSET 0.000000 0.000000 0.000000
									}
								}
							}
						}
					}
				}
			}
		}
	}
}
}
MOTION
Frames: 10
Frame Time: 0.008333
-0.775233 17.275356 -2.878648 126.129647 -84.302486 -111.118813 -2.052087 -2.949675 -6.747514 -0.902808 -3.044460 -3.850243 -5.971628 -3.165874 1.762172 9.875168 -12.826160 -10.627648 -3.150306 -0.222237 -0.745246 0.000000 0.000000 0.000000 -0.063651 9.514500 1.564236 -75.548797 12.513766 4.538644 -3.466974 -23.179935 0.003066 1.732661 -0.926575 -0.013869 -0.089165 -0.031852 -0.000000 0.000000 0.000000 0.000000 0.000000 0.000000 0.000000 15.841744 -9.916950 1.236380 73.708367 -3.109826 -1.162269 4.050556 18.513009 0.012222 2.825568 4.495553 0.108643 0.106867 -0.056246 -0.000000 0.000000 0.000000 0.000000 0.000000 0.000000 0.000000 
-0.746266 17.288785 -2.910125 122.919321 -84.064866 -108.264731 -2.359569 -2.972828 -6.523171 -0.962701 -3.032665 -3.812165 -5.933940 -3.154855 1.715924 9.727409 -12.717780 -10.536635 -3.157567 -0.223566 -0.723073 0.000000 0.000000 0.000000 0.089734 9.326255 1.574963 -75.720501 12.590466 4.731854 -3.475721 -23.018869 0.002929 1.628938 -0.873613 -0.012276 -0.088486 -0.032793 -0.000000 0.000000 0.000000 0.000000 0.000000 0.000000 0.000000 15.731645 -9.820512 1.230744 73.578855 -3.223040 -0.624587 4.046233 18.574398 0.012476 2.880895 4.619813 0.113843 0.107016 -0.055375 -0.000000 0.000000 0.000000 0.000000 0.000000 0.000000 0.000000 
-0.714188 17.303965 -2.940412 119.888106 -83.790839 -105.624964 -2.688909 -2.979555 -6.257624 -1.029643 -3.002038 -3.770285 -5.899839 -3.124851 1.654877 9.572331 -12.558884 -10.421997 -3.168030 -0.225363 -0.695235 0.000000 0.000000 0.000000 0.254748 9.091110 1.586432 -75.868161 12.649518 5.017659 -3.484422 -22.893097 0.002733 1.480685 -0.801274 -0.010183 -0.087635 -0.033856 -0.000000 0.000000 0.000000 0.000000 0.000000 0.000000 0.000000 15.611776 -9.667917 1.231435 73.471950 -3.303305 -0.185436 4.040554 18.537405 0.012826 2.902171 4.796673 0.119045 0.107229 -0.055007 -0.000000 0.000000 0.000000 0.000000 0.000000 0.000000 0.000000 
-0.679042 17.320756 -2.969531 117.100236 -83.482944 -103.263188 -3.039507 -2.967540 -5.946585 -1.103509 -2.950455 -3.723606 -5.869165 -3.073614 1.580467 9.413113 -12.355930 -10.285058 -3.180063 -0.227463 -0.662144 0.000000 0.000000 0.000000 0.436548 8.809885 1.597704 -75.988878 12.684429 5.418259 -3.492969 -22.805973 0.002474 1.285675 -0.707873 -0.007791 -0.086641 -0.035060 -0.000000 0.000000 0.000000 0.000000 0.000000 0.000000 0.000000 15.479945 -9.466127 1.239490 73.393170 -3.337278 0.165148 4.033095 18.383071 0.013256 2.874695 5.019862 0.123247 0.107597 -0.055108 -0.000000 0.000000 0.000000 0.000000 0.000000 0.000000 0.000000 
-0.640535 17.338987 -2.997590 114.589224 -83.146018 -101.217319 -3.410417 -2.934838 -5.584341 -1.184363 -2.876282 -3.672224 -5.843047 -2.999449 1.488283 9.251656 -12.099240 -10.120679 -3.193815 -0.229940 -0.622445 0.000000 0.000000 0.000000 0.640312 8.465790 1.609445 -76.080187 12.708529 5.939796 -3.501008 -22.774090 0.002144 1.041222 -0.591163 -0.005200 -0.085491 -0.036455 -0.000000 0.000000 0.000000 0.000000 0.000000 0.000000 0.000000 15.335221 -9.204197 1.257020 73.352270 -3.335352 0.402365 4.023412 18.111416 0.013727 2.796642 5.271511 0.125648 0.108096 -0.055654 -0.000000 0.000000 0.000000 0.000000 0.000000 0.000000 0.000000 
-0.598520 17.358454 -3.024760 112.361113 -82.786140 -99.495818 -3.800596 -2.880156 -5.164762 -1.272178 -2.778645 -3.615736 -5.822511 -2.901401 1.375577 9.091198 -11.783876 -9.925846 -3.209317 -0.232827 -0.575393 0.000000 0.000000 0.000000 0.871139 8.047252 1.622080 -76.139028 12.728099 6.594112 -3.507968 -22.809186 0.001739 0.747343 -0.450788 -0.002710 -0.084165 -0.038083 -0.000000 0.000000 0.000000 0.000000 0.000000 0.000000 0.000000 15.179776 -8.876589 1.285636 73.354694 -3.302355 0.520698 4.010918 17.724310 0.014199 2.668081 5.534875 0.125550 0.108690 -0.056589 -0.000000 0.000000 0.000000 0.000000 0.000000 0.000000 0.000000 
-0.552737 17.378854 -3.051262 110.396578 -82.410531 -98.081842 -4.209282 -2.802945 -4.681840 -1.366972 -2.657512 -3.553715 -5.808783 -2.779375 1.239636 8.935675 -11.404958 -9.697932 -3.226923 -0.236177 -0.520376 0.000000 0.000000 0.000000 1.134163 7.543944 1.636220 -76.160689 12.748222 7.394289 -3.513065 -22.922120 0.001259 0.406165 -0.288591 -0.000821 -0.082639 -0.039989 -0.000000 0.000000 0.000000 0.000000 0.000000 0.000000 0.000000 15.018647 -8.477773 1.326632 73.402050 -3.244400 0.523504 3.994916 17.231302 0.014630 2.494237 5.792830 0.122450 0.109302 -0.057839 0.000000 0.000000 0.000000 0.000000 0.000000 0.000000 0.000000 
-0.503205 17.399829 -3.077306 108.664869 -82.026401 -96.943391 -4.635670 -2.703698 -4.131036 -1.468545 -2.514014 -3.485068 -5.802446 -2.634426 1.081586 8.790331 -10.966362 -9.439013 -3.246492 -0.239938 -0.458099 0.000000 0.000000 0.000000 1.434286 6.960365 1.651957 -76.138759 12.757847 8.368475 -3.515282 -23.112536 0.000711 0.023307 -0.111083 0.000168 -0.080895 -0.042183 -0.000000 0.000000 0.000000 0.000000 0.000000 0.000000 0.000000 14.859908 -8.011841 1.379958 73.488906 -3.158385 0.450306 3.974330 16.645967 0.014978 2.278656 6.030804 0.115949 0.109869 -0.059277 0.000000 0.000000 0.000000 0.000000 0.000000 0.000000 0.000000 
-0.449827 17.420994 -3.103270 107.116194 -81.636857 -96.029810 -5.081971 -2.583587 -3.510257 -1.577719 -2.349930 -3.411424 -5.806348 -2.468465 0.892963 8.658939 -10.448119 -9.140485 -3.270631 -0.244429 -0.386341 0.000000 0.000000 0.000000 1.769752 6.269160 1.671637 -76.065028 12.786733 9.509509 -3.513002 -23.409483 0.000092 -0.397613 0.078955 -0.000043 -0.078813 -0.044744 -0.000000 0.000000 0.000000 0.000000 0.000000 0.000000 0.000000 14.714745 -7.457160 1.447915 73.614681 -3.074806 0.276996 3.949125 16.000834 0.015200 2.048210 6.228934 0.107046 0.110162 -0.060863 0.000000 0.000000 0.000000 0.000000 0.000000 0.000000 0.000000 
-0.392753 17.441888 -3.129379 105.704747 -81.246853 -95.290609 -5.548237 -2.444586 -2.819591 -1.694401 -2.168042 -3.332684 -5.821342 -2.284323 0.674293 8.546999 -9.854540 -8.804410 -3.299695 -0.249636 -0.305808 0.000000 0.000000 0.000000 2.138566 5.473910 1.695614 -75.927891 12.830315 10.841222 -3.504391 -23.819006 -0.000587 -0.848025 0.273216 -0.001959 -0.076327 -0.047681 -0.000000 0.000000 0.000000 0.000000 0.000000 0.000000 0.000000 14.595032 -6.818641 1.530291 73.767192 -2.994492 0.057695 3.918805 15.319529 0.015270 1.815505 6.378151 0.096540 0.110081 -0.062466 0.000000 0.000000 0.000000 0.000000 0.000000 0.000000 0.000000 
